<?xml version="1.0" standalone="no"?>
<!DOCTYPE svg PUBLIC "-//W3C//DTD SVG 20010904//EN"
 "http://www.w3.org/TR/2001/REC-SVG-20010904/DTD/svg10.dtd">
<svg version="1.0" xmlns="http://www.w3.org/2000/svg"
 width="265.000000pt" height="233.000000pt" viewBox="0 0 265.000000 233.000000"
 preserveAspectRatio="xMidYMid meet">

<g transform="translate(0.000000,233.000000) scale(0.100000,-0.100000)"
fill="#000000" stroke="none">
<path d="M2387 2303 c-9 -17 -7 -1968 3 -1983 12 -18 10 -134 11 1033 1 522
-1 951 -4 953 -3 3 -7 2 -10 -3z"/>
<path d="M2276 2089 c-3 -13 -23 -121 -46 -239 -45 -231 -117 -475 -175 -596
-38 -76 -42 -89 -23 -78 7 4 8 3 4 -5 -4 -6 -11 -9 -15 -7 -4 3 -21 -22 -37
-56 -16 -34 -34 -66 -39 -72 -6 -6 -49 -65 -97 -131 -102 -142 -202 -240 -371
-361 -154 -110 -323 -197 -502 -257 -150 -50 -213 -65 -482 -118 -95 -18 -173
-37 -173 -41 0 -15 215 -9 261 8 24 8 80 17 124 19 44 3 107 9 140 15 33 5 74
10 90 10 l30 0 -25 -20 c-21 -17 -39 -20 -110 -19 -113 1 -120 1 -120 -11 0
-6 41 -10 102 -10 101 0 104 1 153 35 43 29 61 35 130 41 l80 6 -32 -34 c-18
-19 -33 -37 -33 -41 0 -4 45 -7 100 -7 l99 0 36 48 c20 26 42 50 48 53 17 10
157 22 157 15 0 -4 -11 -29 -25 -56 -14 -27 -25 -52 -25 -55 0 -3 48 -4 107
-3 l106 3 21 63 c12 35 28 67 36 72 8 4 46 10 83 13 61 6 68 5 63 -11 -4 -15
-26 -130 -26 -139 0 -7 210 -2 211 5 3 52 17 164 21 167 2 2 41 7 86 11 45 4
83 10 83 13 6 25 6 190 0 199 -5 8 -25 7 -74 -4 -38 -9 -71 -14 -74 -11 -2 3
-1 41 4 84 l8 78 65 23 c35 13 68 28 71 34 9 14 6 184 -3 193 -3 3 -29 -5 -57
-19 l-51 -26 0 32 c0 18 3 56 6 84 6 47 10 53 55 84 36 24 50 41 54 64 7 35 0
164 -8 173 -4 3 -18 -9 -32 -26 -33 -38 -46 -40 -40 -3 2 15 6 51 9 80 3 39
13 64 39 100 32 44 34 52 35 127 1 112 -11 144 -35 93 -17 -37 -4 98 15 157
17 55 26 242 12 265 -7 11 -10 8 -14 -11z m-31 -286 c-9 -50 -17 -34 -9 18 4
24 9 38 12 31 2 -7 1 -29 -3 -49z m-14 -160 c-8 -51 -51 -149 -51 -118 0 16
53 185 57 181 2 -2 0 -30 -6 -63z m28 -163 c-13 -16 -24 -28 -26 -27 -7 8 17
169 29 189 12 21 13 15 16 -54 2 -67 0 -82 -19 -108z m-42 4 c-5 -50 -13 -77
-38 -115 -17 -27 -34 -48 -36 -45 -15 14 56 226 75 226 3 0 2 -30 -1 -66z
m-92 -167 c-4 -27 -16 -53 -28 -64 -15 -14 -19 -14 -15 -3 43 128 55 146 43
67z m74 -9 c-4 -29 -8 -60 -8 -70 -1 -15 -70 -98 -83 -98 -2 0 0 28 7 63 11
56 65 157 85 157 4 0 3 -24 -1 -52z m81 -107 c0 -79 -1 -80 -32 -104 -62 -46
-58 -53 -43 83 5 41 44 100 67 100 4 0 8 -36 8 -79z m-184 -33 c-6 -43 -14
-59 -42 -85 -19 -18 -34 -32 -34 -30 2 36 63 167 79 167 2 0 0 -24 -3 -52z
m89 -20 c-15 -107 -14 -105 -65 -142 -55 -39 -56 -37 -36 45 9 42 23 68 52 98
21 22 42 41 47 41 4 0 5 -19 2 -42z m-193 -110 c-11 -24 -32 -54 -47 -68 l-27
-25 22 45 c26 51 62 102 68 96 2 -3 -5 -24 -16 -48z m75 -17 c-9 -54 -13 -62
-53 -91 -24 -17 -44 -29 -44 -27 0 2 9 30 20 63 13 38 31 69 52 87 18 15 33
27 33 27 1 0 -3 -27 -8 -59z m98 -73 c-9 -91 -10 -91 -70 -121 -31 -15 -57
-27 -59 -27 -1 0 4 32 13 71 14 67 18 74 60 105 26 18 50 34 54 34 5 0 6 -28
2 -62z m-211 -30 c-11 -34 -26 -53 -55 -72 -45 -30 -49 -21 -15 33 14 21 24
40 23 42 -1 2 0 3 2 2 2 -1 15 9 29 22 14 13 27 23 29 21 2 -1 -4 -23 -13 -48z
m82 -56 c-8 -34 -11 -62 -7 -62 3 0 -18 -14 -48 -30 -30 -17 -56 -28 -58 -26
-3 2 4 30 13 61 15 46 27 64 63 91 24 19 45 33 47 32 1 -2 -3 -31 -10 -66z
m242 -49 l-3 -86 -54 -19 c-30 -10 -56 -16 -59 -14 -2 3 -1 39 3 81 l7 76 47
24 c25 13 50 24 54 25 4 0 6 -39 5 -87z m-434 15 c-9 -19 -30 -43 -47 -53 -30
-18 -30 -18 -16 2 22 31 74 90 77 88 2 -2 -5 -18 -14 -37z m65 -46 c-18 -52
-24 -61 -66 -81 -25 -12 -47 -20 -50 -17 -11 11 46 98 82 125 22 16 43 30 47
30 4 1 -2 -25 -13 -57z m237 -19 c-4 -43 -11 -80 -16 -83 -18 -11 -120 -43
-124 -39 -2 2 3 34 11 71 15 66 16 69 67 97 28 16 55 29 60 30 5 1 6 -33 2
-76z m-131 -10 c-3 -10 -11 -40 -16 -67 -5 -27 -12 -52 -15 -55 -8 -9 -108
-40 -112 -36 -2 2 5 30 15 62 17 52 25 61 69 85 58 32 69 34 59 11z m-234 -52
c-14 -27 -35 -48 -61 -61 -54 -28 -56 -26 -22 21 28 37 92 91 100 84 2 -2 -6
-21 -17 -44z m94 -18 c-3 -10 -11 -37 -18 -60 -10 -40 -14 -44 -71 -63 -33
-11 -61 -18 -63 -16 -3 2 7 27 21 55 20 39 37 56 74 75 57 30 66 31 57 9z
m-222 -54 c-10 -17 -36 -40 -58 -50 l-40 -20 54 51 c30 27 56 50 58 50 2 0 -4
-14 -14 -31z m476 -36 c-4 -32 -8 -68 -8 -80 -1 -18 -10 -23 -71 -34 -39 -7
-72 -10 -75 -7 -5 5 19 136 26 142 9 7 124 43 130 40 3 -1 2 -29 -2 -61z
m-389 32 c0 -2 -10 -25 -22 -49 -19 -41 -28 -48 -80 -65 -37 -12 -55 -15 -51
-8 41 64 63 88 98 106 41 20 55 25 55 16z m230 -90 c-14 -74 -21 -80 -98 -91
-60 -8 -60 -7 -33 71 17 48 20 51 77 71 32 11 61 19 63 18 2 -2 -2 -33 -9 -69z
m-379 8 c-24 -42 -49 -63 -90 -78 -54 -19 -52 -19 -44 3 4 12 -2 10 -23 -9
-27 -25 -93 -54 -101 -45 -8 8 113 76 126 71 8 -3 26 5 40 19 26 23 78 55 94
56 4 0 3 -8 -2 -17z m224 -48 c-10 -31 -25 -60 -34 -64 -22 -12 -123 -33 -128
-27 -3 3 8 28 24 57 25 47 34 54 88 74 33 12 62 20 64 19 2 -2 -5 -28 -14 -59z
m465 -75 c0 -81 -2 -90 -19 -90 -10 0 -46 -3 -80 -6 l-62 -7 6 64 c10 106 9
104 62 116 98 21 93 25 93 -77z m-624 28 c-23 -51 -24 -52 -82 -64 -87 -19
-87 -18 -50 33 26 36 46 52 83 64 73 26 74 25 49 -33z m458 -20 c-12 -124 -5
-114 -90 -122 -42 -4 -78 -5 -81 -2 -3 3 1 36 8 75 l12 70 61 15 c98 23 96 24
90 -36z m-600 10 c-31 -56 -56 -77 -104 -87 -69 -15 -76 -14 -57 7 30 33 18
37 -15 5 -22 -21 -51 -35 -87 -42 -30 -6 -56 -10 -58 -8 -14 15 159 93 179 81
5 -3 16 0 25 8 14 12 96 45 116 47 5 1 5 -5 1 -11z m432 -20 c-4 -18 -9 -52
-13 -75 -6 -47 -2 -44 -115 -57 -36 -4 -48 -2 -48 7 0 18 31 110 40 120 6 7
89 29 134 36 5 0 6 -14 2 -31z m-177 -65 c-11 -32 -23 -61 -28 -66 -13 -13
-151 -25 -151 -13 0 6 11 34 24 61 24 49 26 50 93 66 37 8 71 14 75 12 4 -2
-2 -29 -13 -60z m-149 22 c0 -5 -49 -106 -54 -112 -1 -1 -31 -5 -66 -8 -36 -4
-71 -8 -77 -10 -20 -7 -16 7 21 60 30 45 39 51 87 61 63 14 89 16 89 9z m-177
-38 c-4 -7 -21 -32 -38 -54 -31 -42 -61 -53 -148 -53 l-31 0 32 33 c50 52 37
56 -15 5 -46 -43 -52 -46 -120 -52 -40 -4 -73 -5 -73 -3 0 2 24 20 53 39 47
32 100 50 182 63 17 2 57 11 90 19 78 18 77 18 68 3z m-263 -2 c0 -12 -67 -45
-93 -45 -17 0 -26 -4 -22 -11 4 -6 13 -8 21 -5 25 10 15 0 -38 -36 -41 -28
-67 -37 -115 -42 -35 -4 -63 -5 -63 -2 0 13 140 71 183 75 4 1 6 6 5 12 -2 6
24 22 57 35 70 27 65 25 65 19z m914 -107 c-3 -40 -9 -76 -11 -80 -2 -5 -42
-8 -89 -8 -95 0 -93 -3 -73 89 l10 50 57 6 c50 5 76 9 105 14 5 0 5 -32 1 -71z
m-376 -28 l-20 -60 -90 0 c-49 0 -88 3 -86 8 2 4 12 24 21 44 9 20 22 40 29
45 11 7 80 17 145 22 l22 1 -21 -60z m-818 29 c-43 -29 -80 -42 -132 -48 -65
-8 -66 -3 -5 17 121 40 163 49 137 31z m434 -49 l-27 -40 -85 0 -86 0 34 35
c33 35 42 37 158 43 l32 2 -26 -40z m-694 -5 c-19 -7 -53 -13 -75 -13 -39 0
-39 1 15 13 74 17 104 17 60 0z"/>
<path d="M120 40 c0 -7 405 -10 1195 -10 790 0 1195 3 1195 10 0 7 -405 10
-1195 10 -790 0 -1195 -3 -1195 -10z"/>
</g>
</svg>
